#N canvas 552 16 1058 676 10;
#X obj 40 200 netsend;
#X msg -35 103 disconnect;
#X floatatom 41 226 0 0 0 0 - - -;
#X msg 40 38 connect localhost 3000;
#X floatatom 241 48 5 0 0 0 - - -;
#X obj 235 -18 adc~;
#X floatatom 236 119 5 0 0 0 - - -;
#X floatatom 289 117 5 0 0 0 - - -;
#X msg 190 141 0;
#X floatatom 473 42 5 0 0 0 - - -;
#X obj 516 129 print tcp;
#X floatatom 610 131 5 0 0 0 - - -;
#X obj 517 91 netreceive 3001;
#X obj 242 84 moses 52;
#X obj 290 155 f;
#X obj 296 219 moses 62;
#X obj 289 192 moses 55;
#X floatatom 356 174 5 0 0 0 - - -;
#X obj 487 147 bng 15 250 50 0 empty empty empty 17 7 0 10 -262144
-1 -1;
#X obj 285 284 - 58;
#X obj 372 284 - 66;
#X floatatom 278 383 5 0 0 0 - - -;
#X obj 526 266 metro 10;
#X obj 531 236 tgl 15 0 empty empty empty 17 7 0 10 -262144 -1 -1 1
1;
#X obj 490 313 bng 15 250 50 0 empty empty empty 17 7 0 10 -262144
-1 -1;
#X obj 241 440 pack;
#X floatatom 385 383 5 0 0 0 - - -;
#X obj 353 441 pack;
#X msg 61 163 send foo \$1;
#X obj 250 329 t b f;
#X obj 363 337 t b f;
#X msg 226 387 1;
#X msg 338 388 2;
#X obj 286 487 spigot;
#X msg 444 295 1;
#X floatatom 277 524 5 0 0 0 - - -;
#X obj 231 16 sigmund~ -hop 512 pitch -minpower 30 env;
#X connect 0 0 2 0;
#X connect 1 0 0 0;
#X connect 3 0 0 0;
#X connect 4 0 13 0;
#X connect 5 0 36 0;
#X connect 5 1 36 0;
#X connect 7 0 14 1;
#X connect 8 0 33 1;
#X connect 8 0 7 0;
#X connect 8 0 35 0;
#X connect 12 0 10 0;
#X connect 12 0 18 0;
#X connect 12 1 11 0;
#X connect 13 0 6 0;
#X connect 13 0 8 0;
#X connect 13 1 7 0;
#X connect 14 0 16 0;
#X connect 14 0 17 0;
#X connect 15 0 19 0;
#X connect 15 1 20 0;
#X connect 16 1 15 0;
#X connect 18 0 14 0;
#X connect 18 0 34 0;
#X connect 19 0 29 0;
#X connect 20 0 30 0;
#X connect 21 0 25 1;
#X connect 22 0 24 0;
#X connect 23 0 22 0;
#X connect 24 0 18 0;
#X connect 25 0 33 0;
#X connect 26 0 27 1;
#X connect 27 0 33 0;
#X connect 28 0 0 0;
#X connect 29 0 31 0;
#X connect 29 1 21 0;
#X connect 30 0 32 0;
#X connect 30 1 26 0;
#X connect 31 0 25 0;
#X connect 32 0 27 0;
#X connect 33 0 35 0;
#X connect 34 0 33 1;
#X connect 36 0 4 0;
#X connect 36 1 9 0;
