#N canvas 552 16 1058 676 10;
#X obj 40 200 netsend;
#X msg -35 103 disconnect;
#X floatatom 41 226 0 0 0 0 - - -;
#X msg 40 38 connect localhost 3000;
#X floatatom 241 48 5 0 0 0 - - -;
#X obj 235 -18 adc~;
#X floatatom 236 119 5 0 0 0 - - -;
#X floatatom 289 117 5 0 0 0 - - -;
#X msg 190 141 0;
#X msg 61 163 send foo \$1;
#X floatatom 473 42 5 0 0 0 - - -;
#X obj 516 129 print tcp;
#X floatatom 610 131 5 0 0 0 - - -;
#X obj 517 91 netreceive 3001;
#X obj 242 84 moses 52;
#X obj 295 150 f;
#X obj 296 219 moses 62;
#X obj 359 292 moses 66;
#X obj 249 297 moses 58;
#X msg 220 417 1;
#X msg 286 416 2;
#X msg 353 416 3;
#X msg 410 418 4;
#X obj 229 358 spigot;
#X obj 285 356 spigot;
#X obj 337 353 spigot;
#X obj 405 350 spigot;
#X floatatom 111 274 5 0 0 0 - - -;
#X obj 289 192 moses 55;
#X msg 412 242 1;
#X obj 231 16 sigmund~ -hop 512 pitch -minpower 75 env;
#X obj 234 199 print;
#X floatatom 356 174 5 0 0 0 - - -;
#X obj 142 208 spigot;
#X msg 196 515 1;
#X obj 195 486 delay 500;
#X obj 98 466 delay 500;
#X msg 98 516 0;
#X obj 487 147 bng 15 250 50 0 empty empty empty 17 7 0 10 -262144
-1 -1;
#X obj 75 121 f;
#X connect 0 0 2 0;
#X connect 1 0 0 0;
#X connect 3 0 0 0;
#X connect 4 0 14 0;
#X connect 5 0 30 0;
#X connect 5 1 30 0;
#X connect 7 0 15 1;
#X connect 8 0 23 1;
#X connect 8 0 24 1;
#X connect 8 0 25 1;
#X connect 8 0 26 1;
#X connect 8 0 33 0;
#X connect 8 0 36 0;
#X connect 8 0 15 1;
#X connect 9 0 0 0;
#X connect 13 0 11 0;
#X connect 13 0 38 0;
#X connect 13 1 12 0;
#X connect 14 0 6 0;
#X connect 14 0 8 0;
#X connect 14 1 7 0;
#X connect 15 0 28 0;
#X connect 15 0 32 0;
#X connect 16 0 18 0;
#X connect 16 1 17 0;
#X connect 17 0 25 0;
#X connect 17 1 26 0;
#X connect 18 0 23 0;
#X connect 18 1 24 0;
#X connect 19 0 27 0;
#X connect 19 0 35 0;
#X connect 20 0 27 0;
#X connect 20 0 35 0;
#X connect 21 0 27 0;
#X connect 21 0 35 0;
#X connect 22 0 27 0;
#X connect 22 0 35 0;
#X connect 23 0 19 0;
#X connect 24 0 20 0;
#X connect 25 0 21 0;
#X connect 26 0 22 0;
#X connect 27 0 39 1;
#X connect 28 1 29 0;
#X connect 28 1 16 0;
#X connect 29 0 26 1;
#X connect 29 0 25 1;
#X connect 29 0 24 1;
#X connect 29 0 23 1;
#X connect 30 0 4 0;
#X connect 30 1 10 0;
#X connect 33 0 27 0;
#X connect 34 0 33 1;
#X connect 35 0 34 0;
#X connect 36 0 37 0;
#X connect 37 0 33 1;
#X connect 38 0 15 0;
#X connect 38 0 39 0;
#X connect 39 0 9 0;
